<svg width="20" height="23" viewBox="0 0 20 23" fill="none" xmlns="http://www.w3.org/2000/svg">
<path d="M5.7362 0H14.0438C17.2086 0 19.78 2.96817 19.78 6.6213V16.2108C19.78 17.9669 19.1757 19.651 18.0999 20.8927C17.0242 22.1345 15.5651 22.8321 14.0438 22.8321H5.7362C2.5714 22.8321 0 19.8639 0 16.2108V6.6213C0 4.86522 0.604348 3.18107 1.68009 1.93933C2.75584 0.6976 4.21487 0 5.7362 0ZM5.5384 2.28321C4.59412 2.28321 3.68852 2.7162 3.02082 3.48693C2.35311 4.25766 1.978 5.303 1.978 6.39298V16.4391C1.978 18.7109 3.57029 20.5489 5.5384 20.5489H14.2416C15.1859 20.5489 16.0915 20.1159 16.7592 19.3451C17.4269 18.5744 17.802 17.5291 17.802 16.4391V6.39298C17.802 4.12119 16.2097 2.28321 14.2416 2.28321H5.5384ZM15.0823 3.99561C15.4101 3.99561 15.7246 4.14596 15.9564 4.41357C16.1883 4.68119 16.3185 5.04415 16.3185 5.42262C16.3185 5.80108 16.1883 6.16405 15.9564 6.43166C15.7246 6.69928 15.4101 6.84962 15.0823 6.84962C14.7544 6.84962 14.4399 6.69928 14.2081 6.43166C13.9762 6.16405 13.846 5.80108 13.846 5.42262C13.846 5.04415 13.9762 4.68119 14.2081 4.41357C14.4399 4.14596 14.7544 3.99561 15.0823 3.99561ZM9.89 5.70802C11.2015 5.70802 12.4593 6.3094 13.3866 7.37986C14.314 8.45032 14.835 9.90218 14.835 11.416C14.835 12.9299 14.314 14.3818 13.3866 15.4522C12.4593 16.5227 11.2015 17.1241 9.89 17.1241C8.5785 17.1241 7.32072 16.5227 6.39336 15.4522C5.46599 14.3818 4.945 12.9299 4.945 11.416C4.945 9.90218 5.46599 8.45032 6.39336 7.37986C7.32072 6.3094 8.5785 5.70802 9.89 5.70802ZM9.89 7.99123C9.1031 7.99123 8.34843 8.35205 7.79201 8.99433C7.23559 9.63661 6.923 10.5077 6.923 11.416C6.923 12.3244 7.23559 13.1955 7.79201 13.8377C8.34843 14.48 9.1031 14.8408 9.89 14.8408C10.6769 14.8408 11.4316 14.48 11.988 13.8377C12.5444 13.1955 12.857 12.3244 12.857 11.416C12.857 10.5077 12.5444 9.63661 11.988 8.99433C11.4316 8.35205 10.6769 7.99123 9.89 7.99123Z" fill="white"/>
</svg>
