<svg width="21" height="23" viewBox="0 0 21 23" fill="none" xmlns="http://www.w3.org/2000/svg">
<path d="M19.5493 0H1.35175C0.914114 0 0.560547 0.408123 0.560547 0.913283V21.9188C0.560547 22.424 0.914114 22.8321 1.35175 22.8321H19.5493C19.987 22.8321 20.3405 22.424 20.3405 21.9188V0.913283C20.3405 0.408123 19.987 0 19.5493 0ZM6.42779 17.9884C6.42779 18.7988 5.7708 19.4558 4.96036 19.4558C4.14992 19.4558 3.49293 18.7988 3.49293 17.9884V10.0266C3.49293 9.21616 4.14992 8.55917 4.96036 8.55917C5.7708 8.55917 6.42779 9.21616 6.42779 10.0266V17.9884ZM4.9616 7.06938C4.62516 7.06938 4.29627 6.95422 4.01653 6.73846C3.73679 6.5227 3.51875 6.21604 3.39 5.85724C3.26125 5.49845 3.22757 5.10364 3.2932 4.72275C3.35884 4.34186 3.52085 3.99199 3.75875 3.71738C3.99665 3.44277 4.29976 3.25576 4.62973 3.17999C4.95971 3.10423 5.30174 3.14311 5.61257 3.29173C5.9234 3.44035 6.18908 3.69202 6.37599 4.01493C6.56291 4.33783 6.66268 4.71747 6.66268 5.10582C6.6602 6.19035 5.89867 7.06938 4.9616 7.06938ZM17.4156 17.9896C17.4156 18.7993 16.7591 19.4558 15.9494 19.4558C15.1396 19.4558 14.4832 18.7993 14.4832 17.9896V14.1559C14.4832 12.8916 14.4634 11.2676 12.9577 11.2676C11.4321 11.2676 11.1972 12.6433 11.1972 14.0646V17.9908C11.1972 18.7999 10.5414 19.4558 9.73229 19.4558C8.92321 19.4558 8.26733 18.7999 8.26733 17.9908V9.96603C8.26733 9.18904 8.8972 8.55917 9.67418 8.55917H10.3361C10.7475 8.55917 11.081 8.89267 11.081 9.30407V10.0249C11.081 10.0382 11.0918 10.049 11.1051 10.049C11.1145 10.049 11.123 10.0436 11.127 10.035C11.5217 9.18296 12.4759 8.28804 13.8972 8.28804C16.8692 8.28804 17.4156 10.5456 17.4156 13.4795V17.9896Z" fill="#F8F8F8"/>
</svg>
